{"title":"Bombay.Beach.2011.DVDRip.XviD- SPRiNTER","uid":6999573,"size":734129833,"categoryP":"video","categoryS":"movies","magnet":"?xt=urn:btih:1b15880e77d6efd4289ec4459b1c3399b0704bf2&amp;dn=Bombay.Beach.2011.DVDRip.XviD-+SPRiNTER&amp;tr=udp%3A%2F%2Ftracker.openbittorrent.com%3A80&amp;tr=udp%3A%2F%2Fopen.demonii.com%3A1337&amp;tr=udp%3A%2F%2Ftracker.coppersurfer.tk%3A6969&amp;tr=udp%3A%2F%2Fexodus.desync.com%3A6969","seeders":8,"leechers":1,"uploader":"LegendET","files":3,"time":1328006103,"description":"\n\n\n\n[center]\n[img]http://img215.imageshack.us/img215/2273/lxisi.jpg[/img]\n\n\nBombay.Beach.2011.DVDRip.XviD-SPRiNTER\n\n\n\nDate: 30.1.2012\n\nURL: http://www.imdb.com/title/tt1758576/\n\nSubs: No\n\n\nPlot\n\nThe story of three protagonists living in Bombay Beach,\none of the poorest communities in southern California\nlocated on the shores of the Salton Sea\n\n\nRelease notes\n\nEnjoy!\n\n\nDetails\n\nFormat: AVI\nFormat/Info: Audio Video Interleave\nFile size: 700 MiB\nDuration: 1h 16mn\nOverall bit rate mode: Variable\nOverall bit rate: 1 279 Kbps\nWriting application: VirtualDubMod 1.5.10.2 (build 2540/release)\nWriting library: VirtualDubMod build 2540/release\n\nVideo\nID: 0\nFormat: MPEG-4 Visual\nFormat profile: Advanced Simple@L5\nFormat settings, BVOP: 2\nFormat settings, QPel: No\nFormat settings, GMC: No warppoints\nFormat settings, Matrix: Default (H.263)\nCodec ID: XVID\nCodec ID/Hint: XviD\nDuration: 1h 16mn\nBit rate: 1 135 Kbps\nWidth: 640 pixels\nHeight: 352 pixels\nDisplay aspect ratio: 16:9\nFrame rate: 23.976 fps\nColor space: YUV\nChroma subsampling: 4:2:0\nBit depth: 8 bits\nScan type: Progressive\nCompression mode: Lossy\nBits/(Pixel*Frame): 0.210\nStream size: 621 MiB (89%)\nWriting library: XviD 61\n\nAudio\nID: 1\nFormat: MPEG Audio\nFormat version: Version 1\nFormat profile: Layer 3\nMode: Joint stereo\nMode extension: MS Stereo\nCodec ID: 55\nCodec ID/Hint: MP3\nDuration: 1h 16mn\nBit rate mode: Variable\nBit rate: 132 Kbps\nMinimum bit rate: 128 Kbps\nChannel(s): 2 channels\nSampling rate: 48.0 KHz\nCompression mode: Lossy\nStream size: 72.2 MiB (10%)\nAlignment: Aligned on interleaves\nInterleave, duration: 24 ms (0.58 video frame)\nInterleave, preload duration: 139 ms\nWriting library: LAME3.95\nEncoding settings: -m j -V 4 -q 3 -lowpass 18 --vbr-old -b 128\n[/center]","torrent":{"xt":"urn:btih:1b15880e77d6efd4289ec4459b1c3399b0704bf2","amp;dn":"Bombay.Beach.2011.DVDRip.XviD-+SPRiNTER","amp;tr":["udp%3A%2F%2Ftracker.openbittorrent.com%3A80","udp%3A%2F%2Fopen.demonii.com%3A1337","udp%3A%2F%2Ftracker.coppersurfer.tk%3A6969","udp%3A%2F%2Fexodus.desync.com%3A6969"],"infoHash":"1b15880e77d6efd4289ec4459b1c3399b0704bf2","infoHashBuffer":{"type":"Buffer","data":[27,21,136,14,119,214,239,212,40,158,196,69,155,28,51,153,176,112,75,242]},"announce":[],"urlList":[]}}